<svg version="1.1" viewBox="0.0 0.0 960.0 720.0" fill="none" stroke="none" stroke-linecap="square" stroke-miterlimit="10" xmlns:xlink="http://www.w3.org/1999/xlink" xmlns="http://www.w3.org/2000/svg"><clipPath id="p.0"><path d="m0 0l960.0 0l0 720.0l-960.0 0l0 -720.0z" clip-rule="nonzero"/></clipPath><g clip-path="url(#p.0)"><path fill="#000000" fill-opacity="0.0" d="m0 0l960.0 0l0 720.0l-960.0 0z" fill-rule="evenodd"/><path fill="#000000" fill-opacity="0.0" d="m55.199474 86.56693l879.81104 0l0 504.189l-879.81104 0z" fill-rule="evenodd"/><path fill="#00ffff" d="m284.1753 293.72318q-29.89061 0 -44.04686 -21.296875q-2.4375 -3.703125 -2.4375 -7.125q0 -5.28125 4.1875 -8.984375q4.203125 -3.71875 9.578125 -3.71875q5.4687347 0 9.374985 4.109375q6.828125 7.125 7.421875 7.609375q5.765625 4.109375 15.921875 4.109375q15.03125 0 25.09375 -11.03125q9.671875 -10.65625 9.671875 -25.78125q0 -14.5625 -4.84375 -21.78125q-4.828125 -7.234375 -14.59375 -7.234375q-17.1875 0 -27.640625 11.140625q-4.09375 4.6875 -8.296875 9.28125q-5.28125 4.96875 -11.23436 4.96875q-5.5625 0 -9.421875 -3.796875q-3.859375 -3.8125 -3.859375 -8.984375q0 -2.25 1.65625 -17.0q3.234375 -28.609375 3.234375 -38.078125q0 -2.34375 -1.71875 -6.4375q-1.703125 -4.109375 -1.703125 -6.453125q0 -4.890625 4.984375 -7.421875q3.90625 -1.953125 9.171875 -1.953125q1.9531097 0 5.9062347 0.34375q3.953125 0.328125 5.90625 0.328125l46.984375 0.109375q1.75 0 7.515625 -0.578125q5.765625 -0.59375 7.609375 -0.59375q5.28125 0 8.6875 3.375q3.421875 3.359375 3.421875 8.625q0 14.5625 -29.578125 14.5625q-2.34375 0 -5.921875 -0.09375q-3.5625 -0.109375 -4.734375 -0.109375l-29.09375 0q-0.296875 5.953125 -2.4375 19.734375q12.78125 -6.25 30.5625 -6.25q23.734375 0 36.03125 17.671875q10.25 14.546875 10.25 36.625q0 26.5625 -16.40625 43.9375q-17.078125 18.171875 -45.203125 18.171875zm275.97656 -3.21875q-7.71875 -0.296875 -15.53125 -18.171875q-5.171875 -11.53125 -8.890625 -26.5625q-7.21875 1.078125 -23.625 2.140625q-15.4375 1.078125 -23.640625 2.546875q-4.484375 10.734375 -15.625 32.328125q-4.296875 7.03125 -11.90625 7.03125q-5.375 0 -9.671875 -3.65625q-4.296875 -3.671875 -4.296875 -9.34375q0 -4.96875 14.25 -33.78125q-1.359375 -3.03125 -1.171875 -5.671875q0.390625 -4.6875 9.484375 -7.3125q13.859375 -24.03125 30.859375 -49.8125q24.40625 -37.015625 30.078125 -37.015625q10.734375 0 14.34375 13.0q1.953125 10.4375 6.15625 31.34375q5.953125 28.125 14.546875 64.359375q0.6875 2.734375 4.984375 12.890625q3.515625 8.390625 3.515625 12.59375q0 5.65625 -4.25 9.46875q-4.25 3.8125 -9.609375 3.625zm-36.4375 -100.203125q-7.609375 13.078125 -20.984375 35.640625q4.390625 -0.96875 13.671875 -1.5625q10.9375 -0.6875 13.765625 -1.078125q-2.34375 -12.6875 -6.453125 -33.0zm112.30469 20.109375q-4.390625 15.828125 -12.296875 47.765625q-1.859375 11.03125 -3.609375 21.96875q-4.015625 13.875 -14.75 13.875q-6.734375 0 -10.640625 -4.59375q-3.328125 -3.90625 -3.328125 -9.28125q0 -15.828125 6.734375 -38.578125q10.0625 -34.078125 10.84375 -37.796875q2.828125 -15.03125 5.765625 -30.078125q4.390625 -20.703125 9.515625 -27.578125q5.125 -6.890625 12.9375 -6.890625q8.890625 0 13.09375 8.984375q3.90625 8.5 8.390625 34.765625q4.296875 25.484375 12.796875 54.890625q11.140625 -29.015625 20.703125 -63.671875l5.46875 -22.46875q5.28125 -13.96875 16.3125 -13.96875q10.640625 0 15.8125 16.21875q2.15625 6.546875 4.59375 24.40625q5.671875 41.609375 14.265625 71.296875q8.6875 30.171875 8.6875 32.8125q0 5.765625 -4.59375 9.671875q-4.296875 3.515625 -9.671875 3.515625q-10.640625 0 -15.8125 -15.234375l-5.46875 -23.640625q-4.6875 -17.578125 -10.15625 -50.484375q-4.390625 13.078125 -14.546875 41.109375l-5.859375 17.96875q-3.625 10.640625 -7.53125 17.484375q-5.171875 9.078125 -14.453125 9.078125q-9.171875 0 -14.0625 -10.84375l-5.46875 -18.15625q-7.609375 -25.0 -13.671875 -52.546875z" fill-rule="nonzero"/><path fill="#00ffff" d="m215.70656 473.06693q-1.65625 0 -8.203125 -0.671875q-0.578125 13.671875 -0.578125 44.921906q0 5.171875 -3.625 8.890625q-3.609375 3.703125 -9.171875 3.703125q-5.5625 0 -9.234375 -3.703125q-3.65625 -3.71875 -3.65625 -8.890625l0 -27.25003q0 -15.140625 1.953125 -44.828125q1.859375 -30.171875 1.953125 -45.015625q0.09375 -25.390625 14.265625 -24.3125q3.3125 -0.890625 9.171875 -1.328125q5.859375 -0.4375 14.265625 -0.4375q19.140625 0 35.937485 12.40625q18.640625 13.859375 18.640625 33.78125q0 25.0 -19.8125 39.75q-17.57811 12.984375 -41.906235 12.984375zm4.890625 -73.71875q-3.125 0 -5.515625 0.046875q-2.390625 0.046875 -4.0625 0.234375q0 4.59375 -0.09375 13.78125q-0.1875 10.828125 -1.859375 33.78125q4.984375 0.78125 6.640625 0.78125q15.234375 0 25.296875 -7.21875q10.75 -7.71875 10.75 -20.421875q0 -8.296875 -10.0625 -14.734375q-9.671875 -6.25 -21.09375 -6.25zm154.77733 12.78125q-5.078125 0 -27.828125 -2.734375q-1.359375 17.96875 -1.359375 47.765625l-0.109375 43.84375q13.0 -0.296875 26.46875 -0.296875q5.859375 0 9.71875 3.90625q3.859375 3.90625 3.859375 9.3750305q0 5.46875 -3.859375 9.328125q-3.859375 3.859375 -9.71875 3.859375q-5.46875 0 -16.40625 0.25q-10.9375 0.234375 -16.40625 0.234375q-6.4375 0 -19.328125 1.703125q-12.890625 1.71875 -19.34375 1.71875q-5.859375 0 -9.71875 -3.859375q-3.859375 -3.859375 -3.859375 -9.328125q0 -5.46875 3.859375 -9.3750305q3.859375 -3.90625 9.71875 -3.90625q6.640625 0 17.484375 -1.46875q-0.203125 -11.515625 -0.203125 -44.140625q0 -26.5625 1.953125 -50.671875l-21.1875 0.578125q-5.859375 0 -9.8125 -3.796875q-3.953125 -3.8125 -3.953125 -9.484375q0 -5.765625 3.90625 -9.375q3.609375 -3.3125 8.890625 -3.8125q8.59375 -0.78125 29.875 -0.78125q19.140625 0 49.3125 4.109375q12.015625 1.65625 12.015625 13.46875q0 6.25 -4.875 9.875q-4.015625 3.015625 -9.09375 3.015625zm140.2461 -1.265625q-5.375 3.328125 -13.1875 8.5q-16.5 12.203125 -39.0625 41.984375q-17.28125 23.25 -34.578125 46.59375l-0.390625 0.484375q7.140625 -0.203125 34.375 -1.375q21.390625 -0.96875 34.09375 -0.96875q13.953125 0 18.9375 1.078125q11.71875 2.53125 12.109375 11.2187805q0.296875 6.453125 -4.484375 10.171875q-4.109375 3.21875 -9.875 3.21875q-2.828125 0 -8.5 -0.34375q-5.65625 -0.34375 -8.484375 -0.34375q-14.84375 0 -44.578125 0.734375q-29.734375 0.734375 -44.578125 0.734375q-6.359375 0 -10.453125 -3.21875q-4.59375 -3.53125 -4.59375 -9.875q0 -7.03125 6.15625 -16.703156q1.953125 -3.015625 11.03125 -14.734375q16.015625 -21.390625 32.125 -42.6875q19.140625 -24.609375 35.84375 -39.84375q-15.234375 1.078125 -23.234375 1.078125l-39.453125 0q-1.078125 0 -3.140625 0.15625q-2.046875 0.140625 -3.109375 0.140625q-5.765625 0 -9.765625 -3.328125q-4.5 -3.703125 -4.5 -9.953125q0 -13.375 19.828125 -13.375q6.734375 0 20.109375 0.828125q13.390625 0.828125 20.125 0.828125q7.515625 0 22.5 -0.390625q15.0 -0.390625 22.515625 -0.390625q29.109375 0 29.109375 12.6875q0 8.109375 -12.890625 17.09375zm138.67188 0q-5.375 3.328125 -13.1875 8.5q-16.5 12.203125 -39.0625 41.984375q-17.28125 23.25 -34.578125 46.59375l-0.390625 0.484375q7.140625 -0.203125 34.375 -1.375q21.390625 -0.96875 34.09375 -0.96875q13.953125 0 18.9375 1.078125q11.71875 2.53125 12.109375 11.2187805q0.296875 6.453125 -4.484375 10.171875q-4.109375 3.21875 -9.875 3.21875q-2.828125 0 -8.5 -0.34375q-5.65625 -0.34375 -8.484375 -0.34375q-14.84375 0 -44.578125 0.734375q-29.734375 0.734375 -44.578125 0.734375q-6.359375 0 -10.453125 -3.21875q-4.59375 -3.53125 -4.59375 -9.875q0 -7.03125 6.15625 -16.703156q1.953125 -3.015625 11.03125 -14.734375q16.015625 -21.390625 32.125 -42.6875q19.140625 -24.609375 35.84375 -39.84375q-15.234375 1.078125 -23.234375 1.078125l-39.453125 0q-1.078125 0 -3.140625 0.15625q-2.046875 0.140625 -3.109375 0.140625q-5.765625 0 -9.765625 -3.328125q-4.5 -3.703125 -4.5 -9.953125q0 -13.375 19.828125 -13.375q6.734375 0 20.109375 0.828125q13.390625 0.828125 20.125 0.828125q7.515625 0 22.5 -0.390625q15.0 -0.390625 22.515625 -0.390625q29.109375 0 29.109375 12.6875q0 8.109375 -12.890625 17.09375zm136.32812 119.640656q-7.71875 -0.296875 -15.53125 -18.171875q-5.171875 -11.5312805 -8.890625 -26.56253q-7.21875 1.078125 -23.625 2.140625q-15.4375 1.078125 -23.640625 2.546875q-4.484375 10.734375 -15.625 32.328156q-4.296875 7.03125 -11.90625 7.03125q-5.375 0 -9.671875 -3.65625q-4.296875 -3.671875 -4.296875 -9.34375q0 -4.9687805 14.25 -33.78128q-1.359375 -3.03125 -1.171875 -5.671875q0.390625 -4.6875 9.484375 -7.3125q13.859375 -24.03125 30.859375 -49.8125q24.40625 -37.015625 30.078125 -37.015625q10.734375 0 14.34375 13.0q1.953125 10.4375 6.15625 31.34375q5.953125 28.125 14.546875 64.359375q0.6875 2.734375 4.984375 12.890625q3.515625 8.3906555 3.515625 12.5937805q0 5.65625 -4.25 9.46875q-4.25 3.8125 -9.609375 3.625zm-36.4375 -100.203156q-7.609375 13.078125 -20.984375 35.640625q4.390625 -0.96875 13.671875 -1.5625q10.9375 -0.6875 13.765625 -1.078125q-2.34375 -12.6875 -6.453125 -33.0z" fill-rule="nonzero"/><path fill="#ffd966" d="m363.31577 153.44974c-120.35152 20.51828 -276.39273 401.44308 -258.96246 443.19315c17.430244 41.750122 312.91345 -204.6463 363.54398 -192.69266c50.630493 11.953644 -97.73361 265.66354 -59.760864 264.41452c37.972717 -1.2490234 284.8996 -213.20883 287.5973 -271.90866c2.6976318 -58.6998 -279.29675 -47.996246 -271.41144 -80.29019c7.885315 -32.293976 251.69995 -139.70142 318.72333 -113.473526c67.02338 26.227875 146.70508 279.0479 83.41681 270.84082c-63.28833 -8.207123 -342.7951 -340.60175 -463.14664 -320.08344z" fill-rule="evenodd"/><path stroke="#000000" stroke-width="1.0" stroke-linejoin="round" stroke-linecap="butt" d="m363.31577 153.44974c-120.35152 20.51828 -276.39273 401.44308 -258.96246 443.19315c17.430244 41.750122 312.91345 -204.6463 363.54398 -192.69266c50.630493 11.953644 -97.73361 265.66354 -59.760864 264.41452c37.972717 -1.2490234 284.8996 -213.20883 287.5973 -271.90866c2.6976318 -58.6998 -279.29675 -47.996246 -271.41144 -80.29019c7.885315 -32.293976 251.69995 -139.70142 318.72333 -113.473526c67.02338 26.227875 146.70508 279.0479 83.41681 270.84082c-63.28833 -8.207123 -342.7951 -340.60175 -463.14664 -320.08344z" fill-rule="evenodd"/><path fill="#cfe2f3" d="m270.38583 70.31759l73.119354 73.81103l-36.905518 0l0 0c-3.5595703 189.21706 -20.559204 356.32312 -45.85797 450.78302c-25.298782 94.45996 -55.926025 105.181885 -82.61966 28.9234l0 0c29.895584 -85.40588 50.68007 -267.79233 54.66661 -479.70642l-36.905502 0z" fill-rule="evenodd"/><path fill="#a5b4c2" d="m141.21654 674.2546l0 0c-24.46988 0 -47.93753 -63.628906 -65.24035 -176.88904c-17.30281 -113.26016 -27.023434 -266.8739 -27.023434 -427.04794l73.81102 0l0 0c0 160.17404 9.720627 313.78778 27.023438 427.04794c17.30281 113.26013 40.770462 176.88904 65.24034 176.88904z" fill-rule="evenodd"/><path fill="#000000" fill-opacity="0.0" d="m178.12204 623.835c29.895584 -85.40588 50.68007 -267.79233 54.66661 -479.70642l-36.905502 0l74.502686 -73.81103l73.119354 73.81103l-36.905518 0l0 0c-5.694702 302.71472 -44.97693 530.126 -91.57211 530.126l-73.81102 0l0 0c-24.46988 0 -47.93753 -63.628906 -65.24035 -176.88904c-17.30281 -113.26016 -27.023434 -266.8739 -27.023434 -427.04794l73.81102 0l0 0c0 160.17404 9.720627 313.78778 27.023438 427.04794c17.30281 113.26013 40.770462 176.88904 65.24034 176.88904" fill-rule="evenodd"/><path stroke="#000000" stroke-width="1.0" stroke-linejoin="round" stroke-linecap="butt" d="m178.12204 623.835c29.895584 -85.40588 50.68007 -267.79233 54.66661 -479.70642l-36.905502 0l74.502686 -73.81103l73.119354 73.81103l-36.905518 0l0 0c-5.694702 302.71472 -44.97693 530.126 -91.57211 530.126l-73.81102 0l0 0c-24.46988 0 -47.93753 -63.628906 -65.24035 -176.88904c-17.30281 -113.26016 -27.023434 -266.8739 -27.023434 -427.04794l73.81102 0l0 0c0 160.17404 9.720627 313.78778 27.023438 427.04794c17.30281 113.26013 40.770462 176.88904 65.24034 176.88904" fill-rule="evenodd"/><path fill="#cfe2f3" d="m673.71655 674.2546l-73.119385 -73.811035l36.905518 0l0 0c3.5595703 -189.21704 20.559204 -356.3231 45.85797 -450.78302c25.298767 -94.459915 55.926025 -105.181854 82.61963 -28.923355l0 0c-29.895569 85.40588 -50.680054 267.7923 -54.666565 479.70636l36.905518 0z" fill-rule="evenodd"/><path fill="#a5b4c2" d="m802.8858 70.31759l0 0c24.46991 0 47.93756 63.6289 65.24036 176.88904c17.302856 113.26016 27.023438 266.87393 27.023438 427.04794l-73.811035 0l0 0c0 -160.17401 -9.720581 -313.78778 -27.023438 -427.04794c-17.302795 -113.26015 -40.770447 -176.88904 -65.240295 -176.88904z" fill-rule="evenodd"/><path fill="#000000" fill-opacity="0.0" d="m765.9803 120.73718c-29.895569 85.40588 -50.680054 267.7923 -54.666565 479.70636l36.905518 0l-74.502686 73.811035l-73.119385 -73.811035l36.905518 0l0 0c5.694702 -302.71472 44.97693 -530.126 91.57214 -530.126l73.810974 0l0 0c24.46991 0 47.93756 63.6289 65.24036 176.88904c17.302856 113.26016 27.023438 266.87393 27.023438 427.04794l-73.811035 0l0 0c0 -160.17401 -9.720581 -313.78778 -27.023438 -427.04794c-17.302795 -113.26015 -40.770447 -176.88904 -65.240295 -176.88904" fill-rule="evenodd"/><path stroke="#000000" stroke-width="1.0" stroke-linejoin="round" stroke-linecap="butt" d="m765.9803 120.73718c-29.895569 85.40588 -50.680054 267.7923 -54.666565 479.70636l36.905518 0l-74.502686 73.811035l-73.119385 -73.811035l36.905518 0l0 0c5.694702 -302.71472 44.97693 -530.126 91.57214 -530.126l73.810974 0l0 0c24.46991 0 47.93756 63.6289 65.24036 176.88904c17.302856 113.26016 27.023438 266.87393 27.023438 427.04794l-73.811035 0l0 0c0 -160.17401 -9.720581 -313.78778 -27.023438 -427.04794c-17.302795 -113.26015 -40.770447 -176.88904 -65.240295 -176.88904" fill-rule="evenodd"/><path fill="#000000" fill-opacity="0.0" d="m44.519684 79.43044l879.81104 0l0 504.189l-879.81104 0z" fill-rule="evenodd"/><path fill="#000000" d="m273.4955 286.5867q-29.890625 0 -44.046875 -21.296875q-2.4375 -3.703125 -2.4375 -7.125q0 -5.28125 4.1875 -8.984375q4.203125 -3.71875 9.578125 -3.71875q5.46875 0 9.375 4.109375q6.828125 7.125 7.421875 7.609375q5.765625 4.109375 15.921875 4.109375q15.03125 0 25.09375 -11.03125q9.671875 -10.65625 9.671875 -25.78125q0 -14.5625 -4.84375 -21.78125q-4.828125 -7.234375 -14.59375 -7.234375q-17.1875 0 -27.640625 11.140625q-4.09375 4.6875 -8.296875 9.28125q-5.28125 4.96875 -11.234375 4.96875q-5.5625 0 -9.421875 -3.796875q-3.859375 -3.8125 -3.859375 -8.984375q0 -2.25 1.65625 -17.0q3.234375 -28.609375 3.234375 -38.078125q0 -2.34375 -1.71875 -6.4375q-1.703125 -4.109375 -1.703125 -6.453125q0 -4.890625 4.984375 -7.421875q3.90625 -1.953125 9.171875 -1.953125q1.953125 0 5.90625 0.34375q3.953125 0.328125 5.90625 0.328125l46.984375 0.109375q1.75 0 7.515625 -0.578125q5.765625 -0.59375 7.609375 -0.59375q5.28125 0 8.6875 3.375q3.421875 3.359375 3.421875 8.625q0 14.5625 -29.578125 14.5625q-2.34375 0 -5.921875 -0.09375q-3.5625 -0.109375 -4.734375 -0.109375l-29.09375 0q-0.296875 5.953125 -2.4375 19.734375q12.78125 -6.25 30.5625 -6.25q23.734375 0 36.03125 17.671875q10.25 14.546875 10.25 36.625q0 26.5625 -16.40625 43.9375q-17.078125 18.171875 -45.203125 18.171875zm275.9766 -3.21875q-7.71875 -0.296875 -15.53125 -18.171875q-5.171875 -11.53125 -8.890625 -26.5625q-7.21875 1.078125 -23.62503 2.140625q-15.4375 1.078125 -23.640625 2.546875q-4.484375 10.734375 -15.625 32.328125q-4.296875 7.03125 -11.90625 7.03125q-5.375 0 -9.671875 -3.65625q-4.296875 -3.671875 -4.296875 -9.34375q0 -4.96875 14.25 -33.78125q-1.359375 -3.03125 -1.171875 -5.671875q0.390625 -4.6875 9.484375 -7.3125q13.859375 -24.03125 30.859375 -49.8125q24.40628 -37.015625 30.078156 -37.015625q10.734375 0 14.34375 13.0q1.953125 10.4375 6.15625 31.34375q5.953125 28.125 14.546875 64.359375q0.6875 2.734375 4.984375 12.890625q3.515625 8.390625 3.515625 12.59375q0 5.65625 -4.25 9.46875q-4.25 3.8125 -9.609375 3.625zm-36.4375 -100.203125q-7.6094055 13.078125 -20.984406 35.640625q4.390625 -0.96875 13.671875 -1.5625q10.9375305 -0.6875 13.7656555 -1.078125q-2.34375 -12.6875 -6.453125 -33.0zm112.30469 20.109375q-4.390625 15.828125 -12.296875 47.765625q-1.859375 11.03125 -3.609375 21.96875q-4.015625 13.875 -14.75 13.875q-6.734375 0 -10.640625 -4.59375q-3.328125 -3.90625 -3.328125 -9.28125q0 -15.828125 6.734375 -38.578125q10.0625 -34.078125 10.84375 -37.796875q2.828125 -15.03125 5.765625 -30.078125q4.390625 -20.703125 9.515625 -27.578125q5.125 -6.890625 12.9375 -6.890625q8.890625 0 13.09375 8.984375q3.90625 8.5 8.390625 34.765625q4.296875 25.484375 12.796875 54.890625q11.140625 -29.015625 20.703125 -63.671875l5.46875 -22.46875q5.28125 -13.96875 16.3125 -13.96875q10.640625 0 15.8125 16.21875q2.15625 6.546875 4.59375 24.40625q5.671875 41.609375 14.265625 71.296875q8.6875 30.171875 8.6875 32.8125q0 5.765625 -4.59375 9.671875q-4.296875 3.515625 -9.671875 3.515625q-10.640625 0 -15.8125 -15.234375l-5.46875 -23.640625q-4.6875 -17.578125 -10.15625 -50.484375q-4.390625 13.078125 -14.546875 41.109375l-5.859375 17.96875q-3.625 10.640625 -7.53125 17.484375q-5.171875 9.078125 -14.453125 9.078125q-9.171875 0 -14.0625 -10.84375l-5.46875 -18.15625q-7.609375 -25.0 -13.671875 -52.546875z" fill-rule="nonzero"/><path fill="#000000" d="m205.02676 465.93045q-1.65625 0 -8.203125 -0.671875q-0.578125 13.671875 -0.578125 44.921875q0 5.1718445 -3.625 8.8905945q-3.609375 3.703125 -9.171875 3.703125q-5.5625 0 -9.234375 -3.703125q-3.65625 -3.71875 -3.65625 -8.8905945l0 -27.25q0 -15.140625 1.953125 -44.828125q1.859375 -30.171875 1.953125 -45.015625q0.09375 -25.390625 14.265625 -24.3125q3.3125 -0.890625 9.171875 -1.328125q5.859375 -0.4375 14.265625 -0.4375q19.140625 0 35.9375 12.40625q18.640625 13.859375 18.640625 33.78125q0 25.0 -19.8125 39.75q-17.578125 12.984375 -41.90625 12.984375zm4.890625 -73.71875q-3.125 0 -5.515625 0.046875q-2.390625 0.046875 -4.0625 0.234375q0 4.59375 -0.09375 13.78125q-0.1875 10.828125 -1.859375 33.78125q4.984375 0.78125 6.640625 0.78125q15.234375 0 25.296875 -7.21875q10.75 -7.71875 10.75 -20.421875q0 -8.296875 -10.0625 -14.734375q-9.671875 -6.25 -21.09375 -6.25zm154.77734 12.78125q-5.078125 0 -27.828125 -2.734375q-1.359375 17.96875 -1.359375 47.765625l-0.109375 43.84375q13.0 -0.296875 26.46875 -0.296875q5.859375 0 9.71875 3.90625q3.859375 3.90625 3.859375 9.375q0 5.4687195 -3.859375 9.3280945q-3.859375 3.859375 -9.71875 3.859375q-5.46875 0 -16.40625 0.25q-10.9375 0.234375 -16.40625 0.234375q-6.4375 0 -19.328125 1.703125q-12.890625 1.71875 -19.34375 1.71875q-5.859375 0 -9.71875 -3.859375q-3.859375 -3.859375 -3.859375 -9.3280945q0 -5.46875 3.859375 -9.375q3.859375 -3.90625 9.71875 -3.90625q6.640625 0 17.484375 -1.46875q-0.203125 -11.515625 -0.203125 -44.140625q0 -26.5625 1.953125 -50.671875l-21.1875 0.578125q-5.859375 0 -9.8125 -3.796875q-3.953125 -3.8125 -3.953125 -9.484375q0 -5.765625 3.90625 -9.375q3.609375 -3.3125 8.890625 -3.8125q8.59375 -0.78125 29.875 -0.78125q19.140625 0 49.3125 4.109375q12.015625 1.65625 12.015625 13.46875q0 6.25 -4.875 9.875q-4.015625 3.015625 -9.09375 3.015625zm140.2461 -1.265625q-5.375 3.328125 -13.1875 8.5q-16.5 12.203125 -39.0625 41.984375q-17.28125 23.25 -34.578125 46.59375l-0.390625 0.484375q7.140625 -0.203125 34.375 -1.375q21.390625 -0.96875 34.09375 -0.96875q13.953125 0 18.9375 1.078125q11.7187805 2.53125 12.1094055 11.21875q0.296875 6.4530945 -4.484375 10.1718445q-4.1094055 3.21875 -9.8750305 3.21875q-2.828125 0 -8.5 -0.34375q-5.65625 -0.34375 -8.484375 -0.34375q-14.84375 0 -44.578125 0.734375q-29.734375 0.734375 -44.578125 0.734375q-6.359375 0 -10.453125 -3.21875q-4.59375 -3.53125 -4.59375 -9.875q0 -7.0312195 6.15625 -16.703094q1.953125 -3.015625 11.03125 -14.734375q16.015625 -21.390625 32.125 -42.6875q19.140625 -24.609375 35.84375 -39.84375q-15.234375 1.078125 -23.234375 1.078125l-39.453125 0q-1.078125 0 -3.140625 0.15625q-2.046875 0.140625 -3.109375 0.140625q-5.765625 0 -9.765625 -3.328125q-4.5 -3.703125 -4.5 -9.953125q0 -13.375 19.828125 -13.375q6.734375 0 20.109375 0.828125q13.390625 0.828125 20.125 0.828125q7.515625 0 22.5 -0.390625q15.0 -0.390625 22.515625 -0.390625q29.109406 0 29.109406 12.6875q0 8.109375 -12.8906555 17.09375zm138.6719 0q-5.375 3.328125 -13.1875 8.5q-16.5 12.203125 -39.0625 41.984375q-17.28125 23.25 -34.578125 46.59375l-0.390625 0.484375q7.140625 -0.203125 34.375 -1.375q21.390625 -0.96875 34.09375 -0.96875q13.953125 0 18.9375 1.078125q11.71875 2.53125 12.109375 11.21875q0.296875 6.4530945 -4.484375 10.1718445q-4.109375 3.21875 -9.875 3.21875q-2.828125 0 -8.5 -0.34375q-5.65625 -0.34375 -8.484375 -0.34375q-14.84375 0 -44.578125 0.734375q-29.734375 0.734375 -44.578125 0.734375q-6.359375 0 -10.453125 -3.21875q-4.59375 -3.53125 -4.59375 -9.875q0 -7.0312195 6.15625 -16.703094q1.953125 -3.015625 11.03125 -14.734375q16.015625 -21.390625 32.125 -42.6875q19.140625 -24.609375 35.84375 -39.84375q-15.234375 1.078125 -23.234375 1.078125l-39.453125 0q-1.078125 0 -3.140625 0.15625q-2.046875 0.140625 -3.109375 0.140625q-5.765625 0 -9.765625 -3.328125q-4.5 -3.703125 -4.5 -9.953125q0 -13.375 19.828125 -13.375q6.734375 0 20.109375 0.828125q13.390625 0.828125 20.125 0.828125q7.515625 0 22.5 -0.390625q15.0 -0.390625 22.515625 -0.390625q29.109375 0 29.109375 12.6875q0 8.109375 -12.890625 17.09375zm136.32812 119.640594q-7.71875 -0.296875 -15.53125 -18.171844q-5.171875 -11.53125 -8.890625 -26.5625q-7.21875 1.078125 -23.625 2.140625q-15.4375 1.078125 -23.640625 2.546875q-4.484375 10.734375 -15.625 32.328094q-4.296875 7.03125 -11.90625 7.03125q-5.375 0 -9.671875 -3.65625q-4.296875 -3.671875 -4.296875 -9.3437195q0 -4.96875 14.25 -33.78125q-1.359375 -3.03125 -1.171875 -5.671875q0.390625 -4.6875 9.484375 -7.3125q13.859375 -24.03125 30.859375 -49.8125q24.40625 -37.015625 30.078125 -37.015625q10.734375 0 14.34375 13.0q1.953125 10.4375 6.15625 31.34375q5.953125 28.125 14.546875 64.359375q0.6875 2.734375 4.984375 12.890625q3.515625 8.390625 3.515625 12.59375q0 5.6562195 -4.25 9.4687195q-4.25 3.8125 -9.609375 3.625zm-36.4375 -100.203094q-7.609375 13.078125 -20.984375 35.640625q4.390625 -0.96875 13.671875 -1.5625q10.9375 -0.6875 13.765625 -1.078125q-2.34375 -12.6875 -6.453125 -33.0z" fill-rule="nonzero"/></g></svg>